<svg height="512pt" viewBox="0 0 512 512" width="512pt" xmlns="http://www.w3.org/2000/svg" xmlns:xlink="http://www.w3.org/1999/xlink"><linearGradient id="a" gradientUnits="userSpaceOnUse" x1="0" x2="512" y1="256" y2="256"><stop offset="0" stop-color="#00f38d"/><stop offset="1" stop-color="#009eff"/></linearGradient><path d="m512 256c0 141.386719-114.613281 256-256 256s-256-114.613281-256-256 114.613281-256 256-256 256 114.613281 256 256zm0 0" fill="url(#a)"/><g fill="#fff"><path d="m402.140625 291.613281-17.148437 17.125v-120.644531c.074218-10.921875-4.128907-21.207031-11.828126-28.953125-7.71875-7.773437-18.015624-12.054687-28.984374-12.054687h-165.488282l29.378906 30h136.109376c2.917968 0 5.652343 1.136718 7.703124 3.195312 2.023438 2.039062 3.128907 4.742188 3.109376 7.710938v120.457031l-17.164063-17.09375-21.167969 21.257812 53.523438 53.300781 53.152344-53.070312zm0 0"/><path d="m167.820312 334.914062c-2.917968 0-5.65625-1.132812-7.703124-3.195312-2.023438-2.039062-3.128907-4.742188-3.109376-7.710938v-120.453124l17.164063 17.089843 21.167969-21.257812-53.523438-53.304688-53.15625 53.074219 21.199219 21.230469 17.148437-17.125v120.648437c-.070312 10.921875 4.128907 21.203125 11.828126 28.953125 7.722656 7.773438 18.015624 12.050781 28.984374 12.050781h165.488282l-30.675782-30zm0 0"/></g></svg>